# xmcd
#
# Track frame offsets: 
#        150
#        9680
#        21772
#        36219
#        48185
#        62743
#        71966
#        84426
#        95359
#        109646
#        121544
#        136216
#        149487
#        167884
#        178489
#        187716
#
# Disc length: 2631 seconds
#
# Revision: 0
# Processed by: cddbd v1.5.2PL0 Copyright (c) Steve Scherf et al.
# Submitted via: ExactAudioCopyFreeDBPlugin 1.0
#
DISCID=d70a4510
DTITLE=Red Roosters - The Coolest Kind
DYEAR=2004
DGENRE=Country
TTITLE0=The Coolest Kind
TTITLE1=Watcha Gonna Do
TTITLE2=Talkin' Trash Blues
TTITLE3=I Never Lie
TTITLE4=Love and Passion
TTITLE5=One Ladder Away
TTITLE6=Finger Poppin' Time
TTITLE7=One Bad Stud
TTITLE8=Evil Wicked Way
TTITLE9=Tomorrow Night
TTITLE10=Give Up That Honey
TTITLE11=Bound To The Sound
TTITLE12=Eternarly
TTITLE13=Tonight
TTITLE14=Thats The Way I Feel
TTITLE15=Sadies Back In Town
EXTD=
EXTT0=
EXTT1=
EXTT2=
EXTT3=
EXTT4=
EXTT5=
EXTT6=
EXTT7=
EXTT8=
EXTT9=
EXTT10=
EXTT11=
EXTT12=
EXTT13=
EXTT14=
EXTT15=
PLAYORDER=
